<?xml version="1.0" encoding="UTF-8"?>
<!DOCTYPE svg PUBLIC "-//W3C//DTD SVG 1.1//EN" "http://www.w3.org/Graphics/SVG/1.1/DTD/svg11.dtd">
<svg xmlns="http://www.w3.org/2000/svg" version="1.1" width="393px" height="349px" style="shape-rendering:geometricPrecision; text-rendering:geometricPrecision; image-rendering:optimizeQuality; fill-rule:evenodd; clip-rule:evenodd" xmlns:xlink="http://www.w3.org/1999/xlink">
<g><path style="opacity:0.996" fill="#070908" d="M 136.5,229.5 C 136.427,231.027 137.094,232.027 138.5,232.5C 139.338,232.842 139.672,233.508 139.5,234.5C 139.738,236.404 140.738,237.738 142.5,238.5C 146.5,244.5 151.5,249.5 157.5,253.5C 158.539,255.531 160.205,256.864 162.5,257.5C 164.23,258.026 165.564,259.026 166.5,260.5C 166.973,261.906 167.973,262.573 169.5,262.5C 171.795,263.475 173.795,264.808 175.5,266.5C 175.973,267.906 176.973,268.573 178.5,268.5C 179.833,268.833 181.167,269.167 182.5,269.5C 182.5,269.833 182.5,270.167 182.5,270.5C 183.659,272.25 185.326,273.25 187.5,273.5C 188.78,274.931 190.447,275.598 192.5,275.5C 193.167,275.5 193.833,275.5 194.5,275.5C 195.209,276.404 196.209,276.737 197.5,276.5C 198.209,277.404 199.209,277.737 200.5,277.5C 201.833,278.167 203.167,278.833 204.5,279.5C 208.072,280.903 211.905,281.569 216,281.5C 218.361,281.496 220.527,281.163 222.5,280.5C 223.492,280.672 224.158,280.338 224.5,279.5C 225.833,279.5 227.167,279.5 228.5,279.5C 230.415,279.784 232.081,279.451 233.5,278.5C 233.5,278.167 233.5,277.833 233.5,277.5C 234.833,277.5 236.167,277.5 237.5,277.5C 240.01,277.946 242.01,277.28 243.5,275.5C 245.698,275.88 247.365,275.213 248.5,273.5C 249.791,273.737 250.791,273.404 251.5,272.5C 252.492,272.672 253.158,272.338 253.5,271.5C 256.871,270.677 260.204,269.511 263.5,268C 265.833,267.333 268.167,267.333 270.5,268C 271.517,271.773 271.517,275.606 270.5,279.5C 268.895,284.104 265.895,287.438 261.5,289.5C 259.914,290.413 258.414,290.413 257,289.5C 255.968,291.027 254.801,292.36 253.5,293.5C 248.843,295.753 243.843,297.253 238.5,298C 219.464,300.555 200.797,299.388 182.5,294.5C 180.485,293.076 178.152,292.41 175.5,292.5C 172.495,290.723 169.162,289.723 165.5,289.5C 153.866,286.025 143.866,280.025 135.5,271.5C 131.108,266.106 126.108,261.439 120.5,257.5C 102.302,240.78 91.1356,220.113 87,195.5C 82.8254,175.237 82.1587,154.904 85,134.5C 86.4128,129.261 88.4128,124.261 91,119.5C 97.6667,114.167 103.667,108.167 109,101.5C 109.601,99.8632 110.101,98.1966 110.5,96.5C 108.53,91.2263 106.03,86.2263 103,81.5C 92.7871,45.7359 106.12,26.4025 143,23.5C 158.983,23.4757 169.316,31.1423 174,46.5C 179.509,65.0599 180.176,83.7266 176,102.5C 173.362,110.273 168.862,116.773 162.5,122C 155.527,125.272 148.527,125.272 141.5,122C 135.323,118.912 129.323,115.912 123.5,113C 129.249,120.378 136.582,125.544 145.5,128.5C 141.819,130.794 137.819,132.627 133.5,134C 126.451,138.923 122.617,145.756 122,154.5C 119.303,180.988 124.136,205.988 136.5,229.5 Z M 186.5,271.5 C 187.167,271.5 187.833,271.5 188.5,271.5C 190.031,272.925 189.698,273.591 187.5,273.5C 187.167,272.833 186.833,272.167 186.5,271.5 Z M 200.5,277.5 C 202.167,277.5 203.833,277.5 205.5,277.5C 207.5,278.167 209.5,278.833 211.5,279.5C 209.167,279.5 206.833,279.5 204.5,279.5C 203.167,278.833 201.833,278.167 200.5,277.5 Z"/></g>
<g><path style="opacity:0.996" fill="#050706" d="M 212.5,46.5 C 217.923,46.5185 223.256,47.1851 228.5,48.5C 240.006,53.1755 247.506,61.5088 251,73.5C 256.109,93.9457 253.442,113.279 243,131.5C 230.469,146.388 217.803,146.721 205,132.5C 202.938,128.312 201.271,123.979 200,119.5C 197.632,121.684 196.965,124.351 198,127.5C 199.139,131.112 200.806,134.446 203,137.5C 214.984,152.817 228.318,166.817 243,179.5C 245.067,183.639 245.734,187.973 245,192.5C 243.421,198.156 240.921,203.323 237.5,208C 242.802,211.991 248.136,215.991 253.5,220C 257.037,223.369 260.371,226.869 263.5,230.5C 263.427,232.027 264.094,233.027 265.5,233.5C 272.704,243.775 277.37,255.108 279.5,267.5C 279.344,271.764 280.011,275.764 281.5,279.5C 281.5,280.167 281.5,280.833 281.5,281.5C 281.656,289.529 281.323,297.529 280.5,305.5C 278.678,311.305 275.678,316.471 271.5,321C 256.619,329.404 240.619,334.404 223.5,336C 213.018,337.426 202.685,337.593 192.5,336.5C 186.383,335.121 180.05,334.454 173.5,334.5C 170.781,333.087 167.781,332.42 164.5,332.5C 159.304,331.713 154.304,330.213 149.5,328C 147.845,326.556 147.178,324.722 147.5,322.5C 147.58,319.219 146.913,316.219 145.5,313.5C 145.5,313.167 145.5,312.833 145.5,312.5C 144.734,303.521 144.401,294.521 144.5,285.5C 145.5,285.5 146.5,285.5 147.5,285.5C 155.271,289.385 163.271,292.719 171.5,295.5C 171.611,296.117 171.944,296.617 172.5,297C 174.473,297.495 176.473,297.662 178.5,297.5C 180.621,297.325 182.621,297.659 184.5,298.5C 188.817,300.579 193.484,301.746 198.5,302C 212.505,303.945 226.505,303.945 240.5,302C 243.522,301.902 246.189,301.068 248.5,299.5C 252.708,299.323 256.374,297.99 259.5,295.5C 259.973,294.094 260.973,293.427 262.5,293.5C 264.404,293.262 265.738,292.262 266.5,290.5C 269.086,289.362 270.753,287.362 271.5,284.5C 271.328,283.508 271.662,282.842 272.5,282.5C 274.28,281.01 274.946,279.01 274.5,276.5C 276.752,264.954 272.252,261.621 261,266.5C 260.5,266.167 260,265.833 259.5,265.5C 261.225,263.043 261.725,260.377 261,257.5C 260.184,256.177 259.017,255.511 257.5,255.5C 253.354,254.353 249.02,254.186 244.5,255C 241.401,255.387 238.734,256.554 236.5,258.5C 234.102,258.259 232.102,258.926 230.5,260.5C 219.604,264.461 208.604,264.461 197.5,260.5C 195.562,258.837 193.228,258.171 190.5,258.5C 187.156,257.492 183.823,256.492 180.5,255.5C 180.5,254.833 180.167,254.5 179.5,254.5C 179.5,253.833 179.167,253.5 178.5,253.5C 178.027,252.094 177.027,251.427 175.5,251.5C 175.027,250.094 174.027,249.427 172.5,249.5C 172.167,249.5 171.833,249.5 171.5,249.5C 171.5,248.833 171.167,248.5 170.5,248.5C 166.155,242.979 163.655,236.645 163,229.5C 161.623,213.838 160.289,198.172 159,182.5C 156.829,173.151 154.663,163.818 152.5,154.5C 152.029,153.099 151.362,151.766 150.5,150.5C 150.167,151.167 149.833,151.833 149.5,152.5C 149.964,155.349 150.631,158.016 151.5,160.5C 152.903,165.387 153.569,170.387 153.5,175.5C 153.337,182.062 154.004,188.395 155.5,194.5C 156.461,209.722 158.961,224.722 163,239.5C 164.343,242.862 166.176,245.862 168.5,248.5C 169.262,250.262 170.596,251.262 172.5,251.5C 172.833,251.5 173.167,251.5 173.5,251.5C 173.842,252.338 174.508,252.672 175.5,252.5C 175.5,252.833 175.5,253.167 175.5,253.5C 176.659,255.25 178.326,256.25 180.5,256.5C 182.153,256.66 183.486,257.326 184.5,258.5C 185.78,259.931 187.447,260.598 189.5,260.5C 190.78,261.931 192.447,262.598 194.5,262.5C 196.515,263.924 198.848,264.59 201.5,264.5C 205.56,266.017 209.893,266.684 214.5,266.5C 217.686,266.498 220.686,266.165 223.5,265.5C 224.568,264.566 225.901,264.232 227.5,264.5C 232.16,263.991 236.493,262.658 240.5,260.5C 246.43,258.544 252.43,258.21 258.5,259.5C 258.426,263.648 256.759,266.981 253.5,269.5C 251.847,269.66 250.514,270.326 249.5,271.5C 241.637,273.841 233.637,275.675 225.5,277C 218.842,277.5 212.175,277.666 205.5,277.5C 201.365,275.79 197.032,274.457 192.5,273.5C 191.486,272.326 190.153,271.66 188.5,271.5C 187.833,271.5 187.167,271.5 186.5,271.5C 186.158,270.662 185.492,270.328 184.5,270.5C 184.5,270.167 184.5,269.833 184.5,269.5C 184.027,268.094 183.027,267.427 181.5,267.5C 181.027,266.094 180.027,265.427 178.5,265.5C 178.027,264.094 177.027,263.427 175.5,263.5C 174.415,261.413 172.749,260.08 170.5,259.5C 168.251,258.92 166.585,257.587 165.5,255.5C 164.415,253.413 162.749,252.08 160.5,251.5C 160.167,249.167 158.833,247.833 156.5,247.5C 156.5,245.5 155.5,244.5 153.5,244.5C 152.92,242.251 151.587,240.585 149.5,239.5C 148.833,239.5 148.5,239.167 148.5,238.5C 148.262,236.596 147.262,235.262 145.5,234.5C 139.904,227.653 135.571,219.986 132.5,211.5C 132.598,209.447 131.931,207.78 130.5,206.5C 127.439,199.242 125.772,191.575 125.5,183.5C 125.076,172.08 125.743,160.747 127.5,149.5C 128.079,146.669 129.412,144.336 131.5,142.5C 133.5,141.167 135.167,139.5 136.5,137.5C 136.973,136.094 137.973,135.427 139.5,135.5C 140.496,135.414 141.329,135.748 142,136.5C 145.749,134.205 149.583,132.205 153.5,130.5C 166.129,126.203 174.795,117.87 179.5,105.5C 180.268,104.737 180.768,103.737 181,102.5C 181.625,93.5031 182.125,84.5031 182.5,75.5C 186.603,59.7308 196.603,50.0641 212.5,46.5 Z M 152.5,154.5 C 154.663,163.818 156.829,173.151 159,182.5C 160.289,198.172 161.623,213.838 163,229.5C 163.655,236.645 166.155,242.979 170.5,248.5C 169.833,248.5 169.167,248.5 168.5,248.5C 166.176,245.862 164.343,242.862 163,239.5C 158.961,224.722 156.461,209.722 155.5,194.5C 155.663,187.938 154.996,181.605 153.5,175.5C 153.569,170.387 152.903,165.387 151.5,160.5C 151.205,158.265 151.539,156.265 152.5,154.5 Z M 180.5,256.5 C 180.5,256.167 180.5,255.833 180.5,255.5C 183.823,256.492 187.156,257.492 190.5,258.5C 192.599,259.612 194.933,260.279 197.5,260.5C 208.604,264.461 219.604,264.461 230.5,260.5C 232.786,260.405 234.786,259.738 236.5,258.5C 243.251,256.019 250.251,255.019 257.5,255.5C 258.6,256.605 259.267,257.938 259.5,259.5C 259.167,259.5 258.833,259.5 258.5,259.5C 257.129,257.859 255.296,256.859 253,256.5C 248.508,257.165 244.342,258.498 240.5,260.5C 235.835,261.057 231.502,262.39 227.5,264.5C 225.901,264.232 224.568,264.566 223.5,265.5C 216.138,265.635 208.804,265.302 201.5,264.5C 199.485,263.076 197.152,262.41 194.5,262.5C 193.22,261.069 191.553,260.402 189.5,260.5C 188.22,259.069 186.553,258.402 184.5,258.5C 183.486,257.326 182.153,256.66 180.5,256.5 Z"/></g>
<g><path style="opacity:0.31" fill="#595959" d="M 212.5,46.5 C 215.304,45.3622 218.304,45.1955 221.5,46C 224.191,46.1558 226.524,46.9891 228.5,48.5C 223.256,47.1851 217.923,46.5185 212.5,46.5 Z"/></g>
<g><path style="opacity:0.149" fill="#5c5d5d" d="M 182.5,75.5 C 182.125,84.5031 181.625,93.5031 181,102.5C 180.768,103.737 180.268,104.737 179.5,105.5C 180.035,95.3145 181.035,85.3145 182.5,75.5 Z"/></g>
<g><path style="opacity:0.98" fill="#3f4140" d="M 153.5,130.5 C 149.583,132.205 145.749,134.205 142,136.5C 141.329,135.748 140.496,135.414 139.5,135.5C 143.742,132.93 148.409,131.263 153.5,130.5 Z"/></g>
<g><path style="opacity:0.345" fill="#606261" d="M 136.5,137.5 C 135.167,139.5 133.5,141.167 131.5,142.5C 132.167,139.833 133.833,138.167 136.5,137.5 Z"/></g>
<g><path style="opacity:0.035" fill="#838888" d="M 152.5,154.5 C 151.539,156.265 151.205,158.265 151.5,160.5C 150.631,158.016 149.964,155.349 149.5,152.5C 149.833,151.833 150.167,151.167 150.5,150.5C 151.362,151.766 152.029,153.099 152.5,154.5 Z"/></g>
<g><path style="opacity:0.16" fill="#676767" d="M 127.5,149.5 C 125.743,160.747 125.076,172.08 125.5,183.5C 124.343,174.676 124.176,165.676 125,156.5C 125.39,153.896 126.224,151.562 127.5,149.5 Z"/></g>
<g><path style="opacity:0.302" fill="#565656" d="M 153.5,175.5 C 154.996,181.605 155.663,187.938 155.5,194.5C 154.004,188.395 153.337,182.062 153.5,175.5 Z"/></g>
<g><path style="opacity:0.204" fill="#7f8180" d="M 130.5,206.5 C 131.931,207.78 132.598,209.447 132.5,211.5C 131.069,210.22 130.402,208.553 130.5,206.5 Z"/></g>
<g><path style="opacity:0.576" fill="#a4a4a4" d="M 328.5,228.5 C 328.631,227.624 328.298,226.957 327.5,226.5C 323.833,229.167 320.167,231.833 316.5,234.5C 315.707,233.645 316.04,232.811 317.5,232C 316.906,231.536 316.239,231.369 315.5,231.5C 318.642,228.531 321.975,225.698 325.5,223C 324.745,220.825 323.912,218.659 323,216.5C 315.89,221.302 308.724,225.968 301.5,230.5C 301.158,229.662 300.492,229.328 299.5,229.5C 299.5,229.167 299.5,228.833 299.5,228.5C 301.424,228.289 301.757,227.623 300.5,226.5C 300.973,225.094 301.973,224.427 303.5,224.5C 303.833,225.833 304.167,225.833 304.5,224.5C 305.167,224.5 305.5,224.167 305.5,223.5C 311.652,219.588 317.986,215.922 324.5,212.5C 325.442,212.608 326.275,212.941 327,213.5C 328.705,217.618 330.205,221.785 331.5,226C 330.627,227.045 329.627,227.878 328.5,228.5 Z"/></g>
<g><path style="opacity:0.016" fill="#dcdcdc" d="M 305.5,223.5 C 304.833,223.5 304.5,223.833 304.5,224.5C 304.167,224.5 303.833,224.5 303.5,224.5C 303.631,223.624 303.298,222.957 302.5,222.5C 301.583,223.127 300.583,223.461 299.5,223.5C 301.5,220.833 303.5,220.833 305.5,223.5 Z"/></g>
<g><path style="opacity:0.98" fill="#4a4a4a" d="M 303.5,224.5 C 301.973,224.427 300.973,225.094 300.5,226.5C 300.167,227.167 299.833,227.833 299.5,228.5C 298.833,228.5 298.5,228.833 298.5,229.5C 297.833,229.5 297.167,229.5 296.5,229.5C 296.5,228.5 296.5,227.5 296.5,226.5C 295.5,226.5 294.5,226.5 293.5,226.5C 295.03,224.654 297.03,223.654 299.5,223.5C 300.583,223.461 301.583,223.127 302.5,222.5C 303.298,222.957 303.631,223.624 303.5,224.5 Z"/></g>
<g><path style="opacity:0.995" fill="#191919" d="M 293.5,226.5 C 294.5,226.5 295.5,226.5 296.5,226.5C 296.5,227.5 296.5,228.5 296.5,229.5C 296.167,230.167 295.833,230.833 295.5,231.5C 294.833,231.5 294.5,231.833 294.5,232.5C 293.508,232.328 292.842,232.662 292.5,233.5C 290.596,233.738 289.262,234.738 288.5,236.5C 288.167,236.5 287.833,236.5 287.5,236.5C 284.862,237.242 283.529,239.075 283.5,242C 283.657,244.675 284.657,246.841 286.5,248.5C 287.338,248.842 287.672,249.508 287.5,250.5C 287.511,252.017 288.177,253.184 289.5,254C 297.108,256.574 297.108,257.741 289.5,257.5C 285.956,257.868 282.956,256.868 280.5,254.5C 276.615,248.883 273.281,242.883 270.5,236.5C 273.551,236.636 276.551,236.302 279.5,235.5C 280.713,235.253 281.38,234.586 281.5,233.5C 284.835,230.161 288.835,227.828 293.5,226.5 Z"/></g>
<g><path style="opacity:0.012" fill="#d0d0d0" d="M 328.5,228.5 C 328.027,229.906 327.027,230.573 325.5,230.5C 325.973,229.094 326.973,228.427 328.5,228.5 Z"/></g>
<g><path style="opacity:0.984" fill="#343434" d="M 298.5,229.5 C 298.833,229.5 299.167,229.5 299.5,229.5C 300.492,229.328 301.158,229.662 301.5,230.5C 302.441,232.772 303.774,234.772 305.5,236.5C 305.179,238.048 304.179,238.715 302.5,238.5C 298.817,237.325 295.484,235.659 292.5,233.5C 293.492,233.672 294.158,233.338 294.5,232.5C 295.167,232.5 295.5,232.167 295.5,231.5C 297.027,231.573 298.027,230.906 298.5,229.5 Z"/></g>
<g><path style="opacity:0.184" fill="#999999" d="M 136.5,229.5 C 137.906,229.973 138.573,230.973 138.5,232.5C 137.094,232.027 136.427,231.027 136.5,229.5 Z"/></g>
<g><path style="opacity:0.447" fill="#7b7b7b" d="M 263.5,230.5 C 264.906,230.973 265.573,231.973 265.5,233.5C 264.094,233.027 263.427,232.027 263.5,230.5 Z"/></g>
<g><path style="opacity:0.035" fill="#bcbcbc" d="M 322.5,233.5 C 322.027,234.906 321.027,235.573 319.5,235.5C 319.973,234.094 320.973,233.427 322.5,233.5 Z"/></g>
<g><path style="opacity:0.494" fill="#7a7a7a" d="M 139.5,234.5 C 141.262,235.262 142.262,236.596 142.5,238.5C 140.738,237.738 139.738,236.404 139.5,234.5 Z"/></g>
<g><path style="opacity:0.447" fill="#565857" d="M 281.5,233.5 C 281.38,234.586 280.713,235.253 279.5,235.5C 276.551,236.302 273.551,236.636 270.5,236.5C 269.833,236.5 269.5,236.167 269.5,235.5C 273.618,235.47 277.618,234.803 281.5,233.5 Z"/></g>
<g><path style="opacity:0.982" fill="#373737" d="M 328.5,228.5 C 326.973,228.427 325.973,229.094 325.5,230.5C 324.833,231.833 323.833,232.833 322.5,233.5C 320.973,233.427 319.973,234.094 319.5,235.5C 318.089,237.914 316.089,239.581 313.5,240.5C 312.609,241.11 311.609,241.443 310.5,241.5C 312.788,238.621 314.121,235.621 314.5,232.5C 314.5,231.833 314.833,231.5 315.5,231.5C 316.239,231.369 316.906,231.536 317.5,232C 316.04,232.811 315.707,233.645 316.5,234.5C 320.167,231.833 323.833,229.167 327.5,226.5C 328.298,226.957 328.631,227.624 328.5,228.5 Z"/></g>
<g><path style="opacity:0.047" fill="#a5a5a5" d="M 145.5,234.5 C 147.262,235.262 148.262,236.596 148.5,238.5C 146.738,237.738 145.738,236.404 145.5,234.5 Z"/></g>
<g><path style="opacity:0.302" fill="#909090" d="M 288.5,236.5 C 290.735,236.205 292.735,236.539 294.5,237.5C 291.812,237.166 289.479,237.832 287.5,239.5C 287.5,238.833 287.5,238.167 287.5,237.5C 288.167,237.5 288.5,237.167 288.5,236.5 Z"/></g>
<g><path style="opacity:0.996" fill="#171717" d="M 294.5,237.5 C 294.833,237.5 295.167,237.5 295.5,237.5C 296.574,238.885 297.907,240.051 299.5,241C 302.893,241.798 306.226,242.798 309.5,244C 310.252,244.671 310.586,245.504 310.5,246.5C 307.67,250.369 304.17,253.702 300,256.5C 298.989,255.663 297.822,255.33 296.5,255.5C 296.5,255.167 296.5,254.833 296.5,254.5C 296.027,253.094 295.027,252.427 293.5,252.5C 292.833,252.5 292.5,252.167 292.5,251.5C 291.833,250.167 290.833,249.167 289.5,248.5C 286.576,245.944 285.91,242.944 287.5,239.5C 289.479,237.832 291.812,237.166 294.5,237.5 Z"/></g>
<g><path style="opacity:0.624" fill="#6c6c6c" d="M 314.5,232.5 C 314.121,235.621 312.788,238.621 310.5,241.5C 308.958,240.699 307.292,240.366 305.5,240.5C 304.5,239.833 303.5,239.167 302.5,238.5C 304.179,238.715 305.179,238.048 305.5,236.5C 306.873,236.657 308.207,236.49 309.5,236C 310.789,234.198 312.456,233.031 314.5,232.5 Z"/></g>
<g><path style="opacity:0.376" fill="#8c8c8c" d="M 295.5,237.5 C 298.659,239.08 301.993,240.08 305.5,240.5C 306.93,241.537 308.597,242.204 310.5,242.5C 311.686,243.961 311.686,245.295 310.5,246.5C 310.586,245.504 310.252,244.671 309.5,244C 306.226,242.798 302.893,241.798 299.5,241C 297.907,240.051 296.574,238.885 295.5,237.5 Z"/></g>
<g><path style="opacity:0.278" fill="#929393" d="M 142.5,238.5 C 147.833,243.167 152.833,248.167 157.5,253.5C 151.5,249.5 146.5,244.5 142.5,238.5 Z"/></g>
<g><path style="opacity:0.016" fill="#a3a5a5" d="M 149.5,239.5 C 151.587,240.585 152.92,242.251 153.5,244.5C 151.413,243.415 150.08,241.749 149.5,239.5 Z"/></g>
<g><path style="opacity:0.016" fill="#dbdbdb" d="M 313.5,240.5 C 313.179,242.048 312.179,242.715 310.5,242.5C 310.5,242.167 310.5,241.833 310.5,241.5C 311.609,241.443 312.609,241.11 313.5,240.5 Z"/></g>
<g><path style="opacity:0.071" fill="#9b9d9c" d="M 287.5,236.5 C 287.5,236.833 287.5,237.167 287.5,237.5C 286.883,237.611 286.383,237.944 286,238.5C 285.341,241.888 285.508,245.221 286.5,248.5C 284.657,246.841 283.657,244.675 283.5,242C 283.529,239.075 284.862,237.242 287.5,236.5 Z"/></g>
<g><path style="opacity:0.412" fill="#858685" d="M 153.5,244.5 C 155.5,244.5 156.5,245.5 156.5,247.5C 155.167,246.833 154.167,245.833 153.5,244.5 Z"/></g>
<g><path style="opacity:0.408" fill="#808585" d="M 156.5,247.5 C 158.833,247.833 160.167,249.167 160.5,251.5C 158.833,250.5 157.5,249.167 156.5,247.5 Z"/></g>
<g><path style="opacity:0.051" fill="#b2b4b2" d="M 168.5,248.5 C 169.167,248.5 169.833,248.5 170.5,248.5C 171.167,248.5 171.5,248.833 171.5,249.5C 171.5,250.167 171.833,250.5 172.5,250.5C 172.5,250.833 172.5,251.167 172.5,251.5C 170.596,251.262 169.262,250.262 168.5,248.5 Z"/></g>
<g><path style="opacity:0.02" fill="#a6a7a7" d="M 289.5,248.5 C 290.833,249.167 291.833,250.167 292.5,251.5C 290.5,251.5 289.5,250.5 289.5,248.5 Z"/></g>
<g><path style="opacity:0.294" fill="#878a89" d="M 172.5,250.5 C 172.5,250.167 172.5,249.833 172.5,249.5C 174.027,249.427 175.027,250.094 175.5,251.5C 174.833,251.5 174.167,251.5 173.5,251.5C 173.5,250.833 173.167,250.5 172.5,250.5 Z"/></g>
<g><path style="opacity:0.424" fill="#878888" d="M 160.5,251.5 C 162.749,252.08 164.415,253.413 165.5,255.5C 163.251,254.92 161.585,253.587 160.5,251.5 Z"/></g>
<g><path style="opacity:0.224" fill="#909392" d="M 265.5,233.5 C 266.605,234.6 267.938,235.267 269.5,235.5C 269.5,236.167 269.833,236.5 270.5,236.5C 273.281,242.883 276.615,248.883 280.5,254.5C 279.504,254.586 278.671,254.252 278,253.5C 277.833,254.167 277.667,254.833 277.5,255.5C 278.809,259.4 279.476,263.4 279.5,267.5C 277.37,255.108 272.704,243.775 265.5,233.5 Z"/></g>
<g><path style="opacity:0.067" fill="#9a9f9b" d="M 175.5,252.5 C 175.5,252.167 175.5,251.833 175.5,251.5C 177.027,251.427 178.027,252.094 178.5,253.5C 179.167,253.5 179.5,253.833 179.5,254.5C 180.167,254.5 180.5,254.833 180.5,255.5C 180.5,255.833 180.5,256.167 180.5,256.5C 178.326,256.25 176.659,255.25 175.5,253.5C 176.833,253.167 176.833,252.833 175.5,252.5 Z"/></g>
<g><path style="opacity:0.176" fill="#a8a8a8" d="M 293.5,252.5 C 295.027,252.427 296.027,253.094 296.5,254.5C 295.833,254.5 295.167,254.5 294.5,254.5C 294.167,253.833 293.833,253.167 293.5,252.5 Z"/></g>
<g><path style="opacity:0.076" fill="#afb0af" d="M 257.5,255.5 C 250.251,255.019 243.251,256.019 236.5,258.5C 238.734,256.554 241.401,255.387 244.5,255C 249.02,254.186 253.354,254.353 257.5,255.5 Z"/></g>
<g><path style="opacity:0.357" fill="#7a7b7b" d="M 157.5,253.5 C 159.754,254.124 161.421,255.457 162.5,257.5C 160.205,256.864 158.539,255.531 157.5,253.5 Z"/></g>
<g><path style="opacity:0.208" fill="#949595" d="M 287.5,250.5 C 289.372,252.604 291.705,253.937 294.5,254.5C 294.842,255.338 295.508,255.672 296.5,255.5C 296.918,256.222 297.584,256.722 298.5,257C 295.508,258.754 292.508,258.921 289.5,257.5C 297.108,257.741 297.108,256.574 289.5,254C 288.177,253.184 287.511,252.017 287.5,250.5 Z"/></g>
<g><path style="opacity:0.376" fill="#878887" d="M 120.5,257.5 C 126.108,261.439 131.108,266.106 135.5,271.5C 129.892,267.561 124.892,262.894 120.5,257.5 Z"/></g>
<g><path style="opacity:0.678" fill="#6f7170" d="M 190.5,258.5 C 193.228,258.171 195.562,258.837 197.5,260.5C 194.933,260.279 192.599,259.612 190.5,258.5 Z"/></g>
<g><path style="opacity:0.322" fill="#9c9c9c" d="M 258.5,259.5 C 252.43,258.21 246.43,258.544 240.5,260.5C 244.342,258.498 248.508,257.165 253,256.5C 255.296,256.859 257.129,257.859 258.5,259.5 Z"/></g>
<g><path style="opacity:0.18" fill="#959895" d="M 184.5,258.5 C 186.553,258.402 188.22,259.069 189.5,260.5C 187.447,260.598 185.78,259.931 184.5,258.5 Z"/></g>
<g><path style="opacity:0.141" fill="#a2a8a7" d="M 236.5,258.5 C 234.786,259.738 232.786,260.405 230.5,260.5C 232.102,258.926 234.102,258.259 236.5,258.5 Z"/></g>
<g><path style="opacity:0.016" fill="#a4a4a4" d="M 166.5,260.5 C 168.027,260.427 169.027,261.094 169.5,262.5C 167.973,262.573 166.973,261.906 166.5,260.5 Z"/></g>
<g><path style="opacity:0.184" fill="#9b9d9d" d="M 189.5,260.5 C 191.553,260.402 193.22,261.069 194.5,262.5C 192.447,262.598 190.78,261.931 189.5,260.5 Z"/></g>
<g><path style="opacity:0.086" fill="#929494" d="M 240.5,260.5 C 236.493,262.658 232.16,263.991 227.5,264.5C 231.502,262.39 235.835,261.057 240.5,260.5 Z"/></g>
<g><path style="opacity:0.149" fill="#848786" d="M 170.5,259.5 C 172.749,260.08 174.415,261.413 175.5,263.5C 173.251,262.92 171.585,261.587 170.5,259.5 Z"/></g>
<g><path style="opacity:0.024" fill="#a9abaa" d="M 194.5,262.5 C 197.152,262.41 199.485,263.076 201.5,264.5C 198.848,264.59 196.515,263.924 194.5,262.5 Z"/></g>
<g><path style="opacity:0.996" fill="#101111" d="M 121.5,264.5 C 123.167,268.167 125.833,270.833 129.5,272.5C 131.837,274.666 134.337,276.666 137,278.5C 136.94,292.949 138.106,307.283 140.5,321.5C 140.167,322.167 139.833,322.833 139.5,323.5C 128.915,318.247 120.582,310.581 114.5,300.5C 115.925,288.1 117.758,275.767 120,263.5C 120.383,264.056 120.883,264.389 121.5,264.5 Z"/></g>
<g><path style="opacity:0.667" fill="#6b6b6b" d="M 121.5,264.5 C 120.883,264.389 120.383,264.056 120,263.5C 117.758,275.767 115.925,288.1 114.5,300.5C 113.844,299.378 113.511,298.045 113.5,296.5C 114.763,284.649 116.763,272.982 119.5,261.5C 120.919,262.005 121.585,263.005 121.5,264.5 Z"/></g>
<g><path style="opacity:0.22" fill="#909090" d="M 175.5,263.5 C 177.027,263.427 178.027,264.094 178.5,265.5C 176.973,265.573 175.973,264.906 175.5,263.5 Z"/></g>
<g><path style="opacity:0.816" fill="#6f6f6f" d="M 121.5,264.5 C 124.5,266.833 127.167,269.5 129.5,272.5C 125.833,270.833 123.167,268.167 121.5,264.5 Z"/></g>
<g><path style="opacity:0.082" fill="#b4b5b5" d="M 201.5,264.5 C 208.804,265.302 216.138,265.635 223.5,265.5C 220.686,266.165 217.686,266.498 214.5,266.5C 209.893,266.684 205.56,266.017 201.5,264.5 Z"/></g>
<g><path style="opacity:0.216" fill="#8c8f8f" d="M 178.5,265.5 C 180.027,265.427 181.027,266.094 181.5,267.5C 179.973,267.573 178.973,266.906 178.5,265.5 Z"/></g>
<g><path style="opacity:0.114" fill="#adb1b1" d="M 175.5,266.5 C 177.027,266.427 178.027,267.094 178.5,268.5C 176.973,268.573 175.973,267.906 175.5,266.5 Z"/></g>
<g><path style="opacity:0.114" fill="#a1a2a2" d="M 257.5,255.5 C 259.017,255.511 260.184,256.177 261,257.5C 261.725,260.377 261.225,263.043 259.5,265.5C 260,265.833 260.5,266.167 261,266.5C 272.252,261.621 276.752,264.954 274.5,276.5C 274.892,273.278 274.392,270.278 273,267.5C 272.924,271.796 272.091,275.796 270.5,279.5C 271.517,275.606 271.517,271.773 270.5,268C 268.167,267.333 265.833,267.333 263.5,268C 260.204,269.511 256.871,270.677 253.5,271.5C 253.5,271.167 253.5,270.833 253.5,270.5C 256.167,270.167 256.167,269.833 253.5,269.5C 256.759,266.981 258.426,263.648 258.5,259.5C 258.833,259.5 259.167,259.5 259.5,259.5C 259.267,257.938 258.6,256.605 257.5,255.5 Z"/></g>
<g><path style="opacity:0.176" fill="#9a9b9b" d="M 181.5,267.5 C 183.027,267.427 184.027,268.094 184.5,269.5C 183.833,269.5 183.167,269.5 182.5,269.5C 182.167,268.833 181.833,268.167 181.5,267.5 Z"/></g>
<g><path style="opacity:0.033" fill="#b1b2b2" d="M 253.5,269.5 C 253.5,269.833 253.5,270.167 253.5,270.5C 252.167,270.833 252.167,271.167 253.5,271.5C 253.158,272.338 252.492,272.672 251.5,272.5C 251.158,271.662 250.492,271.328 249.5,271.5C 250.514,270.326 251.847,269.66 253.5,269.5 Z"/></g>
<g><path style="opacity:0.11" fill="#bec0bf" d="M 182.5,270.5 C 183.167,270.5 183.833,270.5 184.5,270.5C 184.842,271.338 185.508,271.672 186.5,271.5C 186.833,272.167 187.167,272.833 187.5,273.5C 185.326,273.25 183.659,272.25 182.5,270.5 Z"/></g>
<g><path style="opacity:0.035" fill="#b0b2b2" d="M 188.5,271.5 C 190.153,271.66 191.486,272.326 192.5,273.5C 189.833,273.833 189.833,274.167 192.5,274.5C 192.5,274.833 192.5,275.167 192.5,275.5C 190.447,275.598 188.78,274.931 187.5,273.5C 189.698,273.591 190.031,272.925 188.5,271.5 Z"/></g>
<g><path style="opacity:0.475" fill="#838584" d="M 192.5,274.5 C 192.5,274.167 192.5,273.833 192.5,273.5C 197.032,274.457 201.365,275.79 205.5,277.5C 203.833,277.5 202.167,277.5 200.5,277.5C 199.791,276.596 198.791,276.263 197.5,276.5C 196.791,275.596 195.791,275.263 194.5,275.5C 194.158,274.662 193.492,274.328 192.5,274.5 Z"/></g>
<g><path style="opacity:0.102" fill="#9fa1a0" d="M 249.5,271.5 C 249.842,272.338 250.508,272.672 251.5,272.5C 250.791,273.404 249.791,273.737 248.5,273.5C 247.833,272.167 247.167,272.167 246.5,273.5C 245.209,273.263 244.209,273.596 243.5,274.5C 242.209,274.263 241.209,274.596 240.5,275.5C 239.209,275.263 238.209,275.596 237.5,276.5C 235.901,276.232 234.568,276.566 233.5,277.5C 228.167,277.833 228.167,278.167 233.5,278.5C 232.081,279.451 230.415,279.784 228.5,279.5C 226.481,278.22 225.148,278.22 224.5,279.5C 224.158,280.338 223.492,280.672 222.5,280.5C 221.5,280.5 220.5,280.5 219.5,280.5C 217.052,279.527 214.385,279.194 211.5,279.5C 209.5,278.833 207.5,278.167 205.5,277.5C 212.175,277.666 218.842,277.5 225.5,277C 233.637,275.675 241.637,273.841 249.5,271.5 Z"/></g>
<g><path style="opacity:0.522" fill="#919391" d="M 246.5,273.5 C 247.167,273.5 247.833,273.5 248.5,273.5C 247.365,275.213 245.698,275.88 243.5,275.5C 243.5,275.167 243.5,274.833 243.5,274.5C 244.791,274.737 245.791,274.404 246.5,273.5 Z"/></g>
<g><path style="opacity:0.151" fill="#929292" d="M 279.5,267.5 C 280.795,271.267 281.461,275.267 281.5,279.5C 280.011,275.764 279.344,271.764 279.5,267.5 Z"/></g>
<g><path style="opacity:0.902" fill="#737675" d="M 240.5,275.5 C 241.5,275.5 242.5,275.5 243.5,275.5C 242.01,277.28 240.01,277.946 237.5,277.5C 237.5,277.167 237.5,276.833 237.5,276.5C 238.791,276.737 239.791,276.404 240.5,275.5 Z"/></g>
<g><path style="opacity:0.557" fill="#616362" d="M 204.5,279.5 C 206.833,279.5 209.167,279.5 211.5,279.5C 213.948,280.473 216.615,280.806 219.5,280.5C 220.5,280.5 221.5,280.5 222.5,280.5C 220.527,281.163 218.361,281.496 216,281.5C 211.905,281.569 208.072,280.903 204.5,279.5 Z"/></g>
<g><path style="opacity:0.675" fill="#757575" d="M 274.5,276.5 C 274.946,279.01 274.28,281.01 272.5,282.5C 272.595,280.214 273.262,278.214 274.5,276.5 Z"/></g>
<g><path style="opacity:0.264" fill="#787979" d="M 147.5,285.5 C 146.5,285.5 145.5,285.5 144.5,285.5C 144.401,294.521 144.734,303.521 145.5,312.5C 144.12,306.15 143.12,299.65 142.5,293C 143.282,290.26 143.782,287.426 144,284.5C 145.313,283.713 146.48,284.046 147.5,285.5 Z"/></g>
<g><path style="opacity:0.592" fill="#676767" d="M 165.5,289.5 C 169.162,289.723 172.495,290.723 175.5,292.5C 171.838,292.277 168.505,291.277 165.5,289.5 Z"/></g>
<g><path style="opacity:0.922" fill="#585958" d="M 261.5,289.5 C 259.421,291.873 256.754,293.206 253.5,293.5C 254.801,292.36 255.968,291.027 257,289.5C 258.414,290.413 259.914,290.413 261.5,289.5 Z"/></g>
<g><path style="opacity:0.596" fill="#626563" d="M 271.5,284.5 C 270.753,287.362 269.086,289.362 266.5,290.5C 267.701,288.091 269.367,286.091 271.5,284.5 Z"/></g>
<g><path style="opacity:0.165" fill="#868686" d="M 281.5,281.5 C 282.165,284.649 282.498,287.982 282.5,291.5C 282.7,296.437 282.033,301.104 280.5,305.5C 281.323,297.529 281.656,289.529 281.5,281.5 Z"/></g>
<g><path style="opacity:0.247" fill="#878a89" d="M 266.5,290.5 C 265.738,292.262 264.404,293.262 262.5,293.5C 263.262,291.738 264.596,290.738 266.5,290.5 Z"/></g>
<g><path style="opacity:0.639" fill="#585a58" d="M 175.5,292.5 C 178.152,292.41 180.485,293.076 182.5,294.5C 179.848,294.59 177.515,293.924 175.5,292.5 Z"/></g>
<g><path style="opacity:0.647" fill="#5e5e5e" d="M 171.5,295.5 C 174.067,295.721 176.401,296.388 178.5,297.5C 176.473,297.662 174.473,297.495 172.5,297C 171.944,296.617 171.611,296.117 171.5,295.5 Z"/></g>
<g><path style="opacity:0.616" fill="#585a59" d="M 259.5,295.5 C 256.374,297.99 252.708,299.323 248.5,299.5C 251.939,297.796 255.605,296.462 259.5,295.5 Z"/></g>
<g><path style="opacity:0.377" fill="#5c5c5c" d="M 184.5,298.5 C 205.779,303.164 227.112,303.497 248.5,299.5C 246.189,301.068 243.522,301.902 240.5,302C 226.505,303.945 212.505,303.945 198.5,302C 193.484,301.746 188.817,300.579 184.5,298.5 Z"/></g>
<g><path style="opacity:0.078" fill="#989a9a" d="M 145.5,313.5 C 146.913,316.219 147.58,319.219 147.5,322.5C 146.087,319.781 145.42,316.781 145.5,313.5 Z"/></g>
<g><path style="opacity:0.463" fill="#575a59" d="M 164.5,332.5 C 167.781,332.42 170.781,333.087 173.5,334.5C 170.219,334.58 167.219,333.913 164.5,332.5 Z"/></g>
<g><path style="opacity:0.829" fill="#4c4c4c" d="M 173.5,334.5 C 180.05,334.454 186.383,335.121 192.5,336.5C 185.918,336.844 179.584,336.177 173.5,334.5 Z"/></g>
</svg>
